<svg width="12" height="12" viewBox="0 0 12 12" fill="none" xmlns="http://www.w3.org/2000/svg">
<path d="M5.18484 7.72598H6.33703V8.87793H5.18484V7.72598ZM5.18484 3.11816H6.33703V6.57402H5.18484V3.11816ZM5.75518 0.238281C2.57514 0.238281 0 2.81866 0 5.99805C0 9.17744 2.57514 11.7578 5.75518 11.7578C8.94098 11.7578 11.5219 9.17744 11.5219 5.99805C11.5219 2.81866 8.94098 0.238281 5.75518 0.238281ZM5.76094 10.6059C3.2146 10.6059 1.15219 8.54386 1.15219 5.99805C1.15219 3.45223 3.2146 1.39023 5.76094 1.39023C8.30727 1.39023 10.3697 3.45223 10.3697 5.99805C10.3697 8.54386 8.30727 10.6059 5.76094 10.6059Z" fill="#B7B7B7"/>
</svg>
